<svg width="750" height="88" viewBox="0 0 750 88" fill="none" xmlns="http://www.w3.org/2000/svg">
<path d="M80.6543 31.8066C84.2637 31.8066 88.0781 34.3496 88.0781 41.7734V41.8008C88.0781 48.5273 85.2754 52.4648 80.4902 52.4648C77.1816 52.4648 74.7207 50.5234 74.0508 47.6113L74.0098 47.4336H76.4844L76.5391 47.584C77.1406 49.2383 78.5215 50.2637 80.5176 50.2637C84.0996 50.2637 85.5625 46.7637 85.7129 42.6484C85.7266 42.498 85.7266 42.334 85.7266 42.1836H85.4668C84.7422 43.7969 82.8828 45.2324 80.2168 45.2324C76.5117 45.2324 73.75 42.416 73.75 38.6289V38.6016C73.75 34.6641 76.6758 31.8066 80.6543 31.8066ZM80.6406 43.0859C83.1973 43.0859 85.1387 41.2129 85.1387 38.6426V38.6289C85.1387 36.0312 83.1836 33.9805 80.6816 33.9805C78.207 33.9805 76.2246 35.9902 76.2246 38.5469V38.5742C76.2246 41.1992 78.084 43.0859 80.6406 43.0859ZM93.9844 38.6152C93.0137 38.6152 92.207 37.8086 92.207 36.8379C92.207 35.8535 93.0137 35.0605 93.9844 35.0605C94.9688 35.0605 95.7617 35.8535 95.7617 36.8379C95.7617 37.8086 94.9688 38.6152 93.9844 38.6152ZM93.9844 49.1973C93.0137 49.1973 92.207 48.3906 92.207 47.4199C92.207 46.4355 93.0137 45.6426 93.9844 45.6426C94.9688 45.6426 95.7617 46.4355 95.7617 47.4199C95.7617 48.3906 94.9688 49.1973 93.9844 49.1973ZM109.352 52V47.9121H99.7402V45.6699C102.406 41.1992 105.428 36.3867 108.189 32.2715H111.758V45.7109H114.561V47.9121H111.758V52H109.352ZM102.256 45.7246H109.365V34.5547H109.201C106.986 37.8633 104.402 41.9375 102.256 45.5605V45.7246ZM122.914 52V35.0059H122.695L117.678 38.6426V36.0449L122.928 32.2715H125.375V52H122.914Z" fill="#1F1F1F"/>
<g clip-path="url(#clip0_61_6228)">
<path fill-rule="evenodd" clip-rule="evenodd" d="M617.334 35.3345H619.334C620.439 35.3345 621.334 36.2299 621.334 37.3345V54.6678C621.334 55.7724 620.439 56.6678 619.334 56.6678H617.334C616.229 56.6678 615.334 55.7724 615.334 54.6678V37.3345C615.334 36.2299 616.229 35.3345 617.334 35.3345ZM608 40.0005H610C611.105 40.0005 612 40.8959 612 42.0005V54.6672C612 55.7717 611.105 56.6672 610 56.6672H608C606.895 56.6672 606 55.7717 606 54.6672V42.0005C606 40.8959 606.895 40.0005 608 40.0005ZM598.667 44.6675H600.667C601.772 44.6675 602.667 45.5629 602.667 46.6675V54.6675C602.667 55.772 601.772 56.6675 600.667 56.6675H598.667C597.562 56.6675 596.667 55.772 596.667 54.6675V46.6675C596.667 45.5629 597.562 44.6675 598.667 44.6675ZM589.334 48.6675H591.334C592.439 48.6675 593.334 49.5629 593.334 50.6675V54.6675C593.334 55.772 592.439 56.6675 591.334 56.6675H589.334C588.229 56.6675 587.334 55.772 587.334 54.6675V50.6675C587.334 49.5629 588.229 48.6675 589.334 48.6675Z" fill="black"/>
</g>
<g clip-path="url(#clip1_61_6228)">
<path fill-rule="evenodd" clip-rule="evenodd" d="M646.661 39.2158C651.093 39.216 655.355 40.9189 658.567 43.9725C658.809 44.2082 659.195 44.2052 659.434 43.9658L661.746 41.6325C661.866 41.511 661.933 41.3465 661.932 41.1753C661.931 41.0042 661.862 40.8405 661.74 40.7205C653.31 32.6414 640.01 32.6414 631.58 40.7205C631.458 40.8404 631.389 41.004 631.388 41.1752C631.387 41.3464 631.454 41.5109 631.574 41.6325L633.887 43.9658C634.125 44.2056 634.512 44.2086 634.754 43.9725C637.966 40.9187 642.229 39.2158 646.661 39.2158ZM653.25 49.3463C651.445 47.7118 649.096 46.8068 646.662 46.8069C644.228 46.8079 641.882 47.7129 640.078 49.3463C639.834 49.5782 639.449 49.5732 639.212 49.3349L636.903 47.0016C636.781 46.8794 636.713 46.7134 636.715 46.5408C636.716 46.3682 636.787 46.2035 636.912 46.0836C642.408 40.9708 650.92 40.9708 656.416 46.0836C656.54 46.2035 656.611 46.3681 656.613 46.5406C656.615 46.7132 656.547 46.8792 656.425 47.0016L654.116 49.3349C653.878 49.5732 653.494 49.5782 653.25 49.3463ZM651.1 52.3761C651.223 52.2549 651.291 52.0881 651.288 51.915C651.284 51.742 651.209 51.5781 651.081 51.4621C648.53 49.3043 644.793 49.3043 642.242 51.4621C642.114 51.578 642.039 51.7419 642.035 51.9149C642.032 52.0879 642.1 52.2548 642.223 52.3761L646.218 56.4074C646.335 56.5259 646.495 56.5926 646.662 56.5926C646.828 56.5926 646.988 56.5259 647.105 56.4074L651.1 52.3761Z" fill="black"/>
</g>
<g clip-path="url(#clip2_61_6228)">
<g opacity="0.35">
<path d="M710.667 35.6655H677.333C674.94 35.6655 673 37.6056 673 39.9989V51.9989C673 54.3921 674.94 56.3322 677.333 56.3322H710.667C713.06 56.3322 715 54.3921 715 51.9989V39.9989C715 37.6056 713.06 35.6655 710.667 35.6655Z" stroke="black" stroke-opacity="0.35" stroke-width="2"/>
</g>
<path opacity="0.4" d="M718 41.9995V49.9995C719.609 49.322 720.656 47.7458 720.656 45.9995C720.656 44.2532 719.609 42.6771 718 41.9995Z" fill="black"/>
<path d="M709.333 38.6655H678.667C677.194 38.6655 676 39.8594 676 41.3322V50.6655C676 52.1383 677.194 53.3322 678.667 53.3322H709.333C710.806 53.3322 712 52.1383 712 50.6655V41.3322C712 39.8594 710.806 38.6655 709.333 38.6655Z" fill="black"/>
</g>
<defs>
<clipPath id="clip0_61_6228">
<rect width="34" height="21.3333" fill="white" transform="translate(587.334 35.3345)"/>
</clipPath>
<clipPath id="clip1_61_6228">
<rect width="30.5447" height="21.9314" fill="white" transform="translate(631.388 34.6611)"/>
</clipPath>
<clipPath id="clip2_61_6228">
<rect width="48.6561" height="22.6667" fill="white" transform="translate(672 34.6655)"/>
</clipPath>
</defs>
</svg>
