<svg preserveAspectRatio="none" width="100%" height="100%" overflow="visible" style="display: block;" viewBox="0 0 12.9002 11.004" fill="none" xmlns="http://www.w3.org/2000/svg">
<g id="Group">
<path id="Vector" d="M6.768 10.554H2.976C1.08 10.554 0.45 9.29401 0.45 8.02801V2.976C0.45 1.08 1.08 0.45 2.976 0.45H6.768C8.664 0.45 9.294 1.08 9.294 2.976V8.02801C9.294 9.92401 8.658 10.554 6.768 10.554Z" stroke="var(--stroke-0, #3E45D6)" stroke-width="0.9" stroke-linecap="round" stroke-linejoin="round"/>
<path id="Vector_2" d="M10.9622 8.56201L9.29416 7.39201V3.60603L10.9622 2.43603C11.7782 1.86603 12.4502 2.21403 12.4502 3.21603V7.78801C12.4502 8.79001 11.7782 9.13801 10.9622 8.56201Z" stroke="var(--stroke-0, #3E45D6)" stroke-width="0.9" stroke-linecap="round" stroke-linejoin="round"/>
<path id="Vector_3" d="M6.14987 4.90193C6.64691 4.90193 7.04987 4.49897 7.04987 4.00193C7.04987 3.50487 6.64691 3.10193 6.14987 3.10193C5.65283 3.10193 5.24987 3.50487 5.24987 4.00193C5.24987 4.49897 5.65283 4.90193 6.14987 4.90193Z" stroke="var(--stroke-0, #3E45D6)" stroke-width="0.9" stroke-linecap="round" stroke-linejoin="round"/>
</g>
</svg>
