<svg preserveAspectRatio="none" width="100%" height="100%" overflow="visible" style="display: block;" viewBox="0 0 16 16" fill="none" xmlns="http://www.w3.org/2000/svg">
<g id="iconsax-export-circle-02-z1b2d2nz">
<path id="Union" d="M8 2C8.27595 2.00012 8.49986 2.22405 8.5 2.5C8.5 2.77607 8.27604 2.99988 8 3C4.96435 3 2.50014 5.46439 2.5 8.5C2.50012 11.5356 4.96434 14 8 14C11.0356 13.9999 13.4999 11.5356 13.5 8.5C13.5001 8.22398 13.7239 8 14 8C14.2758 8.00024 14.4999 8.22413 14.5 8.5C14.4999 12.0878 11.5878 14.9999 8 15C4.41205 15 1.50012 12.0879 1.5 8.5C1.50014 4.9121 4.41207 2 8 2ZM8.84668 6.94629C9.04194 6.75113 9.35848 6.75108 9.55371 6.94629C9.74871 7.14154 9.7488 7.45813 9.55371 7.65332L8.9541 8.25293C8.75892 8.44811 8.44235 8.44796 8.24707 8.25293C8.05183 8.05767 8.05182 7.74115 8.24707 7.5459L8.84668 6.94629ZM14 2C14.2759 2.00018 14.4999 2.22409 14.5 2.5V5.39746C14.5 5.67349 14.276 5.89729 14 5.89746C13.7241 5.89723 13.5 5.67346 13.5 5.39746V3.70703L11.0889 6.11816C10.8936 6.31309 10.577 6.31319 10.3818 6.11816C10.1868 5.92298 10.1869 5.60636 10.3818 5.41113L12.793 3H11.1025C10.8264 3 10.6025 2.77614 10.6025 2.5C10.6027 2.22398 10.8265 2 11.1025 2H14Z" fill="var(--fill-0, #111111)"/>
</g>
</svg>
